<svg width="46" height="47" viewBox="0 0 46 47" fill="none" xmlns="http://www.w3.org/2000/svg">
<path d="M19.9039 41.7903L18.6539 40.8288C17.3077 39.8672 17.3077 37.9441 17.3077 36.9826V34.1941C17.3077 33.4249 16.6346 32.7518 15.8654 32.7518H10.0962C9.32695 32.7518 8.65387 33.4249 8.65387 34.1941V41.598C8.65387 44.1941 10.1923 46.2134 12.5962 46.2134H17.3077C20.0962 46.2134 20.2885 44.2903 20.2885 44.2903C20.2885 44.2903 20.7693 42.5595 19.9039 41.7903Z" fill="#50B498"/>
<path d="M41.3462 15.4442V2.36723C41.3462 2.36723 41.3462 2.36723 41.3462 2.27108C41.3462 -0.0366112 38.4615 -0.709688 36.9231 0.828773L28.3654 8.9057C27.0192 10.0595 25.2885 10.5403 23.5577 10.5403H8.94231C3.94231 10.6365 0 14.9634 0 19.9634V20.1557C0 25.1557 3.94231 28.9057 8.94231 28.9057H23.5577C25.3846 28.9057 27.1154 29.6749 28.4615 30.8288L36.9231 39.098C38.4615 40.6365 41.3462 40.0595 41.3462 37.7519C41.3462 37.7519 41.3462 37.7518 41.3462 37.6557V24.6749C44.2308 24.6749 45.9615 22.6557 45.9615 20.0595C45.9615 17.4634 44.2308 15.4442 41.3462 15.4442Z" fill="#50B498"/>
</svg>
