<svg width="60" height="60" viewBox="0 0 60 60" fill="none" xmlns="http://www.w3.org/2000/svg">
<path fill-rule="evenodd" clip-rule="evenodd" d="M15 3.75C9.84455 3.75 5.625 7.96954 5.625 13.125V54.375C5.62515 54.7773 5.7547 55.169 5.99452 55.492C6.23434 55.8151 6.57171 56.0524 6.95679 56.169C7.34187 56.2856 7.75424 56.2753 8.13298 56.1395C8.51173 56.0037 8.83676 55.7497 9.06006 55.415L11.25 52.1301L13.4399 55.415C13.6112 55.6718 13.8432 55.8824 14.1153 56.028C14.3875 56.1736 14.6913 56.2498 15 56.2498C15.3087 56.2498 15.6125 56.1736 15.8847 56.028C16.1568 55.8824 16.3888 55.6718 16.5601 55.415L18.75 52.1301L20.9399 55.415C21.1112 55.6718 21.3432 55.8824 21.6153 56.028C21.8875 56.1736 22.1914 56.2498 22.5 56.2498C22.8086 56.2498 23.1125 56.1736 23.3847 56.028C23.6568 55.8824 23.8888 55.6718 24.0601 55.415L26.25 52.1301L28.4399 55.415C28.6112 55.6718 28.8432 55.8824 29.1153 56.028C29.3875 56.1736 29.6914 56.2498 30 56.2498C30.3086 56.2498 30.6125 56.1736 30.8847 56.028C31.1568 55.8824 31.3888 55.6718 31.5601 55.415L33.75 52.1301L35.9399 55.415C36.1632 55.7497 36.4883 56.0037 36.867 56.1395C37.2458 56.2753 37.6581 56.2856 38.0432 56.169C38.4283 56.0524 38.7657 55.8151 39.0055 55.492C39.2453 55.169 39.3749 54.7773 39.375 54.375V31.875H52.5C52.9973 31.875 53.4741 31.6774 53.8258 31.3258C54.1774 30.9741 54.375 30.4973 54.375 30V13.125C54.375 7.96954 50.1555 3.75 45 3.75H15ZM15 7.5H37.5146C36.3298 9.06996 35.625 11.0186 35.625 13.125V15V30V48.1824L35.3101 47.71C35.1388 47.4532 34.9068 47.2426 34.6347 47.097C34.3625 46.9514 34.0586 46.8752 33.75 46.8752C33.4414 46.8752 33.1375 46.9514 32.8653 47.097C32.5932 47.2426 32.3612 47.4532 32.1899 47.71L30 50.9949L27.8101 47.71C27.6388 47.4532 27.4068 47.2426 27.1347 47.097C26.8625 46.9514 26.5586 46.8752 26.25 46.8752C25.9414 46.8752 25.6375 46.9514 25.3653 47.097C25.0932 47.2426 24.8612 47.4532 24.6899 47.71L22.5 50.9949L20.3101 47.71C20.1388 47.4532 19.9068 47.2426 19.6347 47.097C19.3625 46.9514 19.0587 46.8752 18.75 46.8752C18.4413 46.8752 18.1375 46.9514 17.8653 47.097C17.5932 47.2426 17.3612 47.4532 17.1899 47.71L15 50.9949L12.8101 47.71C12.6388 47.4532 12.4068 47.2426 12.1347 47.097C11.8625 46.9514 11.5586 46.8752 11.25 46.8752C10.9414 46.8752 10.6375 46.9514 10.3653 47.097C10.0932 47.2426 9.8612 47.4532 9.68994 47.71L9.375 48.1824V13.125C9.375 9.99619 11.8712 7.5 15 7.5ZM45 7.5C48.1288 7.5 50.625 9.99619 50.625 13.125V28.125H39.375V15V13.125C39.375 9.99619 41.8712 7.5 45 7.5Z" fill="#50B498"/>
<path fill-rule="evenodd" clip-rule="evenodd" d="M15 26.25C14.5027 26.25 14.0258 26.4475 13.6742 26.7992C13.3225 27.1508 13.125 27.6277 13.125 28.125C13.125 28.6223 13.3225 29.0992 13.6742 29.4508C14.0258 29.8025 14.5027 30 15 30H22.5C22.9973 30 23.4742 29.8025 23.8258 29.4508C24.1775 29.0992 24.375 28.6223 24.375 28.125C24.375 27.6277 24.1775 27.1508 23.8258 26.7992C23.4742 26.4475 22.9973 26.25 22.5 26.25H15Z" fill="#50B498"/>
<path fill-rule="evenodd" clip-rule="evenodd" d="M15 31.875C14.5027 31.875 14.0258 32.0725 13.6742 32.4242C13.3225 32.7758 13.125 33.2527 13.125 33.75C13.125 34.2473 13.3225 34.7242 13.6742 35.0758C14.0258 35.4275 14.5027 35.625 15 35.625H30C30.4973 35.625 30.9742 35.4275 31.3258 35.0758C31.6775 34.7242 31.875 34.2473 31.875 33.75C31.875 33.2527 31.6775 32.7758 31.3258 32.4242C30.9742 32.0725 30.4973 31.875 30 31.875H15Z" fill="#50B498"/>
<path fill-rule="evenodd" clip-rule="evenodd" d="M15 37.5C14.5027 37.5 14.0258 37.6975 13.6742 38.0492C13.3225 38.4008 13.125 38.8777 13.125 39.375C13.125 39.8723 13.3225 40.3492 13.6742 40.7008C14.0258 41.0525 14.5027 41.25 15 41.25H30C30.4973 41.25 30.9742 41.0525 31.3258 40.7008C31.6775 40.3492 31.875 39.8723 31.875 39.375C31.875 38.8777 31.6775 38.4008 31.3258 38.0492C30.9742 37.6975 30.4973 37.5 30 37.5H15Z" fill="#50B498"/>
<path fill-rule="evenodd" clip-rule="evenodd" d="M15 13.125C14.5027 13.125 14.0259 13.3226 13.6742 13.6742C13.3226 14.0259 13.125 14.5027 13.125 15V22.5C13.125 22.9973 13.3226 23.4741 13.6742 23.8258C14.0259 24.1774 14.5027 24.375 15 24.375H22.5C22.9973 24.375 23.4741 24.1774 23.8258 23.8258C24.1774 23.4741 24.375 22.9973 24.375 22.5V15C24.375 14.5027 24.1774 14.0259 23.8258 13.6742C23.4741 13.3226 22.9973 13.125 22.5 13.125H15ZM16.875 16.875H20.625V20.625H16.875V16.875Z" fill="#50B498"/>
</svg>
