<svg width="47" height="47" viewBox="0 0 47 47" fill="none" xmlns="http://www.w3.org/2000/svg">
<path d="M46.4162 25.0992C46.4128 28.467 46.3871 31.3295 46.1958 33.6783C45.9737 36.404 45.5186 38.6814 44.5 40.573C44.0508 41.4071 43.4987 42.1544 42.8266 42.8266C40.919 44.7339 38.4887 45.5981 35.4089 46.0122C32.3997 46.4167 28.5433 46.4167 23.6224 46.4167H23.3777C18.4567 46.4167 14.6003 46.4167 11.5913 46.0122C8.51142 45.5981 6.08113 44.7339 4.17359 42.8266C2.4825 41.1353 1.60919 39.0307 1.14479 36.4196C0.688585 33.8547 0.605122 30.6636 0.587774 26.7008C0.583374 25.693 0.583374 24.6269 0.583374 23.5021V23.3777C0.583351 18.4568 0.583329 14.6003 0.987877 11.5913C1.40196 8.51143 2.26605 6.08114 4.17359 4.17361C6.08113 2.26607 8.51142 1.40197 11.5913 0.987892C14.2672 0.628123 17.7101 0.588317 21.9005 0.58394C22.7834 0.583 23.5 1.29921 23.5 2.18222C23.5 3.06524 22.7832 3.78072 21.9002 3.78166C17.6505 3.78615 14.4881 3.82486 12.0173 4.15704C9.29207 4.52345 7.64906 5.22032 6.43469 6.4347C5.22031 7.64908 4.52344 9.29209 4.15702 12.0174C3.78444 14.7887 3.78105 18.4302 3.78105 23.5001C3.78105 24.1193 3.78105 24.7178 3.78178 25.2976L5.91599 23.4304C7.85861 21.7304 10.7864 21.8281 12.6117 23.6531L21.7565 32.798C23.2216 34.2631 25.5277 34.4627 27.2229 33.2715L27.8586 32.8246C30.2978 31.1104 33.598 31.3091 35.8141 33.3036L41.848 38.7341C42.4553 37.4586 42.816 35.7827 43.0085 33.4186C43.19 31.1911 43.215 28.4856 43.2185 25.0994C43.2194 24.2164 43.9348 23.5001 44.8178 23.5001C45.7008 23.5001 46.4172 24.2162 46.4162 25.0992Z" fill="#468585"/>
<path fill-rule="evenodd" clip-rule="evenodd" d="M36.1042 21.2083C31.2429 21.2083 28.8122 21.2083 27.302 19.6981C25.7917 18.1879 25.7917 15.7572 25.7917 10.8958C25.7917 6.03448 25.7917 3.6038 27.302 2.09357C28.8122 0.583336 31.2429 0.583336 36.1042 0.583336C40.9656 0.583336 43.3963 0.583336 44.9065 2.09357C46.4167 3.6038 46.4167 6.03448 46.4167 10.8958C46.4167 15.7572 46.4167 18.1879 44.9065 19.6981C43.3963 21.2083 40.9656 21.2083 36.1042 21.2083ZM37.823 6.3125C37.823 5.36327 37.0535 4.59375 36.1042 4.59375C35.155 4.59375 34.3855 5.36327 34.3855 6.3125V9.17709H31.5209C30.5717 9.17709 29.8022 9.9466 29.8022 10.8958C29.8022 11.8451 30.5717 12.6146 31.5209 12.6146H34.3855V15.4792C34.3855 16.4284 35.155 17.1979 36.1042 17.1979C37.0535 17.1979 37.823 16.4284 37.823 15.4792V12.6146H40.6876C41.6368 12.6146 42.4063 11.8451 42.4063 10.8958C42.4063 9.9466 41.6368 9.17709 40.6876 9.17709H37.823V6.3125Z" fill="#468585"/>
</svg>
