<svg width="46" height="28" viewBox="0 0 46 28" fill="none" xmlns="http://www.w3.org/2000/svg">
<path d="M0 28C0.0052765 26.163 0.371192 24.3451 1.0768 22.6502C1.78242 20.9554 2.81388 19.417 4.11215 18.123C5.85565 16.3781 8.02473 15.1235 10.4025 14.4847C12.7802 13.8459 15.2833 13.8453 17.6613 14.483C18.2967 16.8537 18.3002 19.3506 17.6714 21.723C17.0426 24.0955 15.8037 26.2602 14.0789 28H0ZM45.5264 0.525C46.1589 2.90076 46.1578 5.40187 45.5232 7.77708C44.8887 10.1523 43.6429 12.318 41.9111 14.0565C40.1793 15.7951 38.0225 17.0454 35.6573 17.6818C33.2921 18.3182 30.8018 18.3182 28.4366 17.682C27.8056 15.3067 27.8078 12.8065 28.4431 10.4323C29.0784 8.05815 30.3243 5.89361 32.0559 4.15597C33.7874 2.41833 35.9436 1.16874 38.308 0.532647C40.6725 -0.103451 43.1619 -0.103674 45.5264 0.532V0.525ZM0.0487882 0H14.058L14.0022 0.049C12.27 1.78853 10.1124 3.03942 7.74622 3.67592C5.38005 4.31243 2.88874 4.31211 0.522731 3.675C0.203957 2.47638 0.0445918 1.24064 0.0487882 0ZM1.40092 28H3.16427L6.13338 25.032V18.186C4.66027 19.3593 3.46925 20.8509 2.64876 22.5499C1.82826 24.2489 1.39938 26.1117 1.39395 28H1.40092ZM5.15064 28H11.981C13.6784 26.6506 14.9987 24.8826 15.8134 22.8682C16.6282 20.8539 16.9094 18.662 16.6298 16.506L5.15761 28H5.15064ZM7.54127 17.206V23.625L15.6401 15.512C12.8731 15.162 10.0086 15.722 7.54127 17.206ZM30.4439 16.66C32.3487 16.9087 34.2849 16.7147 36.1033 16.0931C37.9218 15.4715 39.5738 14.4388 40.932 13.0747C42.2902 11.7105 43.3185 10.0513 43.9374 8.22504C44.5563 6.39875 44.7494 4.4541 44.5018 2.541L30.4439 16.66ZM35.4621 3.241V9.646L43.5121 1.554C40.7521 1.204 37.9015 1.764 35.4481 3.234L35.4621 3.241ZM33.0296 5.145C30.172 8.015 28.9802 11.928 29.4542 15.666L34.0612 11.046V4.214C33.7057 4.501 33.3642 4.809 33.0296 5.145ZM11.974 0H5.17155L2.53699 2.646C4.20629 2.86335 5.90206 2.7411 7.52334 2.28652C9.14461 1.83194 10.6582 1.05433 11.974 0ZM1.44971 0C1.44274 0.56 1.47759 1.106 1.54728 1.659L3.19912 0H1.44274H1.44971Z" fill="#DEF9C4"/>
</svg>
