<svg width="50" height="36" viewBox="0 0 50 36" fill="none" xmlns="http://www.w3.org/2000/svg">
<path d="M49.9709 15.4868L49.9723 28.6895C49.9723 32.3458 47.118 35.3355 43.5161 35.5519L43.0973 35.5645H6.90268C3.24635 35.5645 0.256668 32.7102 0.0402257 29.1083L0.0276784 28.6895L0.0258789 15.4868H49.9709ZM40.6323 24.25H34.3823L34.1279 24.2671C33.2127 24.3913 32.5073 25.1757 32.5073 26.125C32.5073 27.0742 33.2127 27.8587 34.1279 27.9829L34.3823 28H40.6323L40.8867 27.9829C41.8019 27.8587 42.5073 27.0742 42.5073 26.125C42.5073 25.1757 41.8019 24.3913 40.8867 24.2671L40.6323 24.25ZM43.0973 0.551758C46.7536 0.551758 49.7433 3.40602 49.9597 7.00795L49.9723 7.42676L49.9709 11.7368H0.0258789L0.0276784 7.42676C0.0276784 3.77043 2.88194 0.780747 6.48387 0.564305L6.90268 0.551758H43.0973Z" fill="#50B498"/>
</svg>
